<svg width="11" height="11" viewBox="0 0 11 11" fill="none" xmlns="http://www.w3.org/2000/svg">
<path d="M9.61736 8.4122C9.5022 8.41213 9.39178 8.36635 9.31035 8.28492C9.22893 8.20349 9.18315 8.09308 9.18308 7.97792L9.18257 1.65275L0.911352 9.92397C0.829859 10.0055 0.71933 10.0512 0.604081 10.0512C0.488832 10.0512 0.378304 10.0055 0.296811 9.92397C0.215317 9.84248 0.169535 9.73195 0.169535 9.6167C0.169535 9.50145 0.215318 9.39092 0.296811 9.30943L8.56802 1.03821L2.24286 1.0377C2.13033 1.03373 2.02374 0.986235 1.94554 0.905227C1.86734 0.824218 1.82364 0.716019 1.82364 0.603424C1.82364 0.49083 1.86734 0.382631 1.94554 0.301622C2.02374 0.220613 2.13033 0.17312 2.24286 0.169149L9.61735 0.169149C9.73251 0.169221 9.84293 0.214998 9.92435 0.296425C10.0058 0.377851 10.0516 0.48827 10.0516 0.603425L10.0516 7.97792C10.0516 8.09308 10.0058 8.20349 9.92436 8.28492C9.84293 8.36635 9.73251 8.41213 9.61736 8.4122Z" fill="white"/>
</svg>
