<svg width="20" height="17" viewBox="0 0 20 17" fill="none" xmlns="http://www.w3.org/2000/svg">
<path d="M19.5 5.49088C19.5 11.6903 10.6964 16.7082 10.3215 16.9154C10.2227 16.9709 10.1122 17 10 17C9.88779 17 9.77734 16.9709 9.67853 16.9154C9.30362 16.7082 0.5 11.6903 0.5 5.49088C0.501572 4.03511 1.05614 2.63944 2.04204 1.61005C3.02794 0.580669 4.36466 0.00164083 5.75893 0C7.51049 0 9.04406 0.786435 10 2.11576C10.9559 0.786435 12.4895 0 14.2411 0C15.6353 0.00164083 16.9721 0.580669 17.958 1.61005C18.9439 2.63944 19.4984 4.03511 19.5 5.49088Z" fill="#FBFBFB"/>
</svg>
