<svg width="20" height="20" viewBox="0 0 12 12" fill="none" xmlns="http://www.w3.org/2000/svg">
<path fill-rule="evenodd" clip-rule="evenodd" d="M4.59551 0.867139C4.50377 0.950153 4.40736 1.02786 4.30676 1.09989C4.13293 1.21656 3.93751 1.29706 3.73218 1.33789C3.64293 1.35539 3.5496 1.36297 3.36351 1.37756C2.89626 1.41489 2.66235 1.43356 2.46751 1.50239C2.24474 1.58104 2.0424 1.70858 1.87534 1.87563C1.70829 2.04269 1.58075 2.24503 1.5021 2.46781C1.43326 2.66264 1.4146 2.89656 1.37726 3.36381C1.3709 3.48734 1.35766 3.61042 1.3376 3.73247C1.29676 3.93781 1.21626 4.13322 1.0996 4.30706C1.04885 4.38289 0.98818 4.45406 0.866846 4.59581C0.56293 4.95281 0.41068 5.13131 0.32143 5.31797C0.115513 5.74964 0.115513 6.25131 0.32143 6.68297C0.41068 6.86964 0.56293 7.04814 0.866846 7.40514C0.98818 7.54689 1.04885 7.61805 1.0996 7.69389C1.21626 7.86772 1.29676 8.06314 1.3376 8.26847C1.3551 8.35772 1.36268 8.45105 1.37726 8.63714C1.4146 9.10439 1.43326 9.3383 1.5021 9.53314C1.58075 9.75591 1.70829 9.95825 1.87534 10.1253C2.0424 10.2924 2.24474 10.4199 2.46751 10.4986C2.66235 10.5674 2.89626 10.5861 3.36351 10.6234C3.5496 10.638 3.64293 10.6456 3.73218 10.6631C3.93751 10.7039 4.13293 10.785 4.30676 10.9011C4.3826 10.9518 4.45376 11.0125 4.59551 11.1338C4.95251 11.4377 5.13101 11.59 5.31768 11.6792C5.74935 11.8851 6.25101 11.8851 6.68268 11.6792C6.86935 11.59 7.04785 11.4377 7.40485 11.1338C7.5466 11.0125 7.61776 10.9518 7.6936 10.9011C7.86743 10.7844 8.06285 10.7039 8.26818 10.6631C8.35743 10.6456 8.45076 10.638 8.63685 10.6234C9.1041 10.5861 9.33801 10.5674 9.53285 10.4986C9.75562 10.4199 9.95796 10.2924 10.125 10.1253C10.2921 9.95825 10.4196 9.75591 10.4983 9.53314C10.5671 9.3383 10.5858 9.10439 10.6231 8.63714C10.6377 8.45105 10.6453 8.35772 10.6628 8.26847C10.7036 8.06314 10.7847 7.86772 10.9008 7.69389C10.9515 7.61805 11.0122 7.54689 11.1335 7.40514C11.4374 7.04814 11.5897 6.86964 11.6789 6.68297C11.8848 6.25131 11.8848 5.74964 11.6789 5.31797C11.5897 5.13131 11.4374 4.95281 11.1335 4.59581C11.0505 4.50406 10.9728 4.40766 10.9008 4.30706C10.7842 4.13315 10.7033 3.93786 10.6628 3.73247C10.6427 3.61041 10.6295 3.48733 10.6231 3.36381C10.5858 2.89656 10.5671 2.66264 10.4983 2.46781C10.4196 2.24503 10.2921 2.04269 10.125 1.87563C9.95796 1.70858 9.75562 1.58104 9.53285 1.50239C9.33801 1.43356 9.1041 1.41489 8.63685 1.37756C8.51332 1.37119 8.39024 1.35795 8.26818 1.33789C8.0628 1.29734 7.8675 1.21645 7.6936 1.09989C7.59311 1.02771 7.49671 0.950007 7.40485 0.867139C7.04785 0.563223 6.86935 0.410973 6.68268 0.321723C6.46958 0.219862 6.23638 0.166992 6.00018 0.166992C5.76398 0.166992 5.53078 0.219862 5.31768 0.321723C5.13101 0.410973 4.95251 0.563223 4.59551 0.867139ZM8.23493 3.76631C8.32377 3.85533 8.37366 3.97596 8.37366 4.10172C8.37366 4.22749 8.32377 4.34812 8.23493 4.43714L4.43685 8.23581C4.39357 8.28317 4.34114 8.32127 4.28273 8.34782C4.22432 8.37436 4.16114 8.38879 4.097 8.39023C4.03286 8.39168 3.96909 8.38011 3.90954 8.35623C3.84999 8.33235 3.7959 8.29665 3.75054 8.25128C3.70517 8.20591 3.66947 8.15182 3.64559 8.09228C3.6217 8.03273 3.61014 7.96896 3.61158 7.90482C3.61303 7.84068 3.62746 7.77749 3.654 7.71908C3.68054 7.66067 3.71865 7.60825 3.76601 7.56497L7.56351 3.76689C7.65253 3.67805 7.77316 3.62815 7.89893 3.62815C8.0247 3.62815 8.14533 3.67805 8.23435 3.76689M8.2151 7.58364C8.2151 7.7515 8.14841 7.91248 8.02972 8.03118C7.91102 8.14987 7.75004 8.21655 7.58218 8.21655C7.41432 8.21655 7.25333 8.14987 7.13464 8.03118C7.01594 7.91248 6.94926 7.7515 6.94926 7.58364C6.94926 7.41578 7.01594 7.25479 7.13464 7.1361C7.25333 7.0174 7.41432 6.95072 7.58218 6.95072C7.75004 6.95072 7.91102 7.0174 8.02972 7.1361C8.14841 7.25479 8.2151 7.41578 8.2151 7.58364ZM4.4176 5.05197C4.58546 5.05197 4.74644 4.98529 4.86514 4.8666C4.98383 4.7479 5.05051 4.58692 5.05051 4.41905C5.05051 4.2512 4.98383 4.09021 4.86514 3.97152C4.74644 3.85282 4.58546 3.78614 4.4176 3.78614C4.24974 3.78614 4.08875 3.85282 3.97006 3.97152C3.85136 4.09021 3.78468 4.2512 3.78468 4.41905C3.78468 4.58692 3.85136 4.7479 3.97006 4.8666C4.08875 4.98529 4.24974 5.05197 4.4176 5.05197Z" fill="#FBFBFB"/>
</svg>
